<svg width="11" height="7" viewBox="0 0 11 7" fill="none" xmlns="http://www.w3.org/2000/svg">
<path d="M5.43953 4.82844L1.83869 0.713363C1.73978 0.600054 1.60753 0.537721 1.46652 0.537721C1.32543 0.537721 1.19327 0.600054 1.0942 0.713363L0.778843 1.07395C0.67962 1.18708 0.625 1.33831 0.625 1.49946C0.625 1.66061 0.67962 1.81166 0.778843 1.92488L5.06596 6.82453C5.16534 6.9382 5.29813 7.00044 5.4393 7C5.58109 7.00044 5.71373 6.93829 5.81319 6.82453L10.0962 1.92944C10.1954 1.81622 10.25 1.66518 10.25 1.50393C10.25 1.34278 10.1954 1.19173 10.0962 1.07842L9.7808 0.717923C9.57555 0.483346 9.24141 0.483346 9.03623 0.717923L5.43953 4.82844Z" fill="white"/>
</svg>
