<svg width="20" height="20" viewBox="0 0 20 20" fill="none" xmlns="http://www.w3.org/2000/svg">
<path d="M9.77246 8.19434C9.34098 8.19434 8.99121 8.5441 8.99121 8.97559V14.0066C8.99121 14.4381 9.34098 14.7878 9.77246 14.7878C10.2039 14.7878 10.5537 14.438 10.5537 14.0065V8.97559C10.5537 8.5441 10.2039 8.19434 9.77246 8.19434Z" fill="white"/>
<path d="M9.77246 7.23767C10.3549 7.23767 10.8271 6.76547 10.8271 6.18298C10.8271 5.6005 10.3549 5.1283 9.77246 5.1283C9.18997 5.1283 8.71777 5.6005 8.71777 6.18298C8.71777 6.76547 9.18997 7.23767 9.77246 7.23767Z" fill="white"/>
<path d="M10 0C4.47254 0 0 4.47293 0 10C0 15.5275 4.47293 20 10 20C15.5275 20 20 15.5271 20 10C20 4.47254 15.527 0 10 0ZM10 18.4375C5.33621 18.4375 1.5625 14.6635 1.5625 10C1.5625 5.33621 5.33652 1.5625 10 1.5625C14.6638 1.5625 18.4375 5.33652 18.4375 10C18.4375 14.6638 14.6634 18.4375 10 18.4375Z" fill="white"/>
</svg>
