<svg width="149" height="35" viewBox="0 0 149 35" fill="none" xmlns="http://www.w3.org/2000/svg">
<path d="M146.205 2.33697H146.403C146.678 2.33697 146.862 2.32169 146.923 2.30642C146.984 2.29115 147.045 2.24532 147.091 2.1995C147.137 2.1384 147.152 2.07731 147.152 2.01621C147.152 1.95511 147.137 1.89402 147.091 1.83292C147.045 1.7871 146.999 1.74127 146.923 1.726C146.846 1.71072 146.678 1.69545 146.403 1.69545H146.205V2.33697ZM145.716 3.71165V1.29832H146.205C146.663 1.29832 146.923 1.29832 146.968 1.29832C147.137 1.3136 147.259 1.34414 147.35 1.38997C147.442 1.43579 147.518 1.51216 147.579 1.61908C147.641 1.726 147.671 1.83292 147.671 1.97039C147.671 2.1384 147.61 2.29115 147.503 2.41334C147.396 2.53553 147.228 2.6119 147.03 2.64245C147.106 2.673 147.152 2.70355 147.198 2.7341C147.243 2.76465 147.289 2.82574 147.366 2.91739C147.381 2.94794 147.442 3.03958 147.549 3.2076L147.839 3.69637H147.228L147.03 3.29924C146.892 3.03958 146.785 2.87157 146.694 2.79519C146.602 2.7341 146.495 2.68828 146.358 2.68828H146.205V3.6811H145.716V3.71165ZM146.755 0.672078C146.449 0.672078 146.144 0.748449 145.853 0.901191C145.563 1.05393 145.349 1.28305 145.181 1.57326C145.013 1.86347 144.937 2.16895 144.937 2.48971C144.937 2.81047 145.013 3.11595 145.181 3.40616C145.349 3.69637 145.563 3.92549 145.853 4.07823C146.144 4.24625 146.449 4.32262 146.755 4.32262C147.075 4.32262 147.381 4.24625 147.656 4.07823C147.946 3.91021 148.175 3.69637 148.328 3.40616C148.496 3.11595 148.572 2.81047 148.572 2.48971C148.572 2.16895 148.496 1.86347 148.328 1.57326C148.16 1.28305 147.931 1.05393 147.656 0.901191C147.35 0.748449 147.06 0.672078 146.755 0.672078ZM146.739 0.229126C147.121 0.229126 147.503 0.320771 147.854 0.519336C148.206 0.717901 148.496 0.992837 148.694 1.35942C148.893 1.726 149 2.10785 149 2.50498C149 2.90211 148.893 3.2687 148.694 3.63528C148.496 3.98658 148.221 4.27679 147.854 4.47536C147.503 4.67392 147.121 4.78084 146.724 4.78084C146.327 4.78084 145.96 4.67392 145.594 4.47536C145.243 4.27679 144.952 4.00186 144.754 3.63528C144.555 3.28397 144.448 2.90211 144.448 2.50498C144.448 2.10785 144.555 1.726 144.754 1.35942C144.952 0.992837 145.243 0.717901 145.594 0.519336C145.976 0.320771 146.358 0.229126 146.739 0.229126Z" fill="white"/>
<path d="M0 16.3282V0.137482H4.24623V11.6848L11.2418 2.55081C11.2418 2.55081 12.8914 0.290224 13.9759 0.290224H17.6264C17.6264 0.290224 6.61374 15.3659 6.41517 15.6561C6.21661 15.9463 5.75838 16.3129 5.04049 16.3129H0V16.3282Z" fill="white"/>
<path d="M24.9271 0.32074H20.3906V16.2976H24.9271V0.32074Z" fill="white"/>
<path d="M27.585 0.167999H39.4378V1.97036H35.7719V16.3434H31.2966V2.03145H27.6155L27.585 0.167999Z" fill="white"/>
<path d="M46.8762 1.74127H52.5582C56.4073 1.74127 56.4073 7.5913 52.5582 7.5913H46.8762V1.74127ZM42.5078 0.229126V16.3587H46.8762V8.70632H50.4962C50.4962 8.70632 51.0155 8.70632 51.8709 9.98935C52.7263 11.2724 58.897 19.6121 58.897 19.6121C58.897 19.6121 60.0732 21.3839 61.8144 21.3839H142.921V19.5816H66.3509C66.3509 19.5816 64.7165 19.7801 63.4946 18.4665C62.2421 17.1224 55.9797 8.81324 55.9797 8.81324C60.8063 8.52303 61.2646 0.962288 56.2393 0.305497C55.384 0.229126 42.5078 0.229126 42.5078 0.229126Z" fill="white"/>
<path d="M76.7373 9.59221C76.7373 12.3416 75.1946 14.6174 73.2853 14.6174H70.3221C68.4128 14.6174 66.8396 12.3568 66.8396 9.59221V7.11779C66.8396 4.35315 68.4128 2.09257 70.3221 2.09257H73.2853C75.1793 2.09257 76.7373 4.35315 76.7373 7.11779V9.59221ZM74.66 0H69.0085C65.358 0 62.3643 3.0243 62.3643 6.67483V9.92824C62.3643 13.6093 65.358 16.6031 69.0085 16.6031H74.66C78.3411 16.6031 81.3348 13.6093 81.3348 9.92824V6.67483C81.3348 3.0243 78.3411 0 74.66 0Z" fill="white"/>
<path d="M113.854 7.33164H122.469V8.81324H113.854V11.1044C113.854 13.1206 115.458 14.7549 117.474 14.7549H122.576V16.3282H114.206C111.747 16.3282 109.715 14.3272 109.715 11.8375V0.259674H111.655H113.854H122.469V1.74127H113.854V7.33164ZM83.917 0.229126H87.5064C89.0797 0.35132 88.988 0.717901 89.935 2.09258L95.3574 9.91298L100.749 2.09258C101.711 0.717901 101.605 0.35132 103.178 0.229126H106.767V16.3282H103.178V5.39181L95.3574 15.9616L87.5064 5.39181V16.3282H83.917V0.229126Z" fill="white"/>
<path d="M139.01 16.3282L134.352 10.5239L129.632 16.3282H125.722L132.335 8.18699L125.951 0.259674H129.861L134.321 5.83476L138.796 0.259674H142.691L136.307 8.18699L142.92 16.3282H139.01Z" fill="white"/>
<path d="M45.639 33.5575H44.7226L43.3173 26.8521V33.5727H42.5078V25.1414H43.8214L45.2113 31.8773L46.5555 25.1414H47.8691V33.5727H46.9832V26.791L45.639 33.5575Z" fill="white"/>
<path d="M50.9851 25.1414H50.0381V33.5727H50.9851V25.1414Z" fill="white"/>
<path d="M59.2333 28.8835V29.7236H57.156V32.7174H59.6915V33.5727H56.209V25.1414H59.6915V25.9967H57.156V28.8835H59.2333Z" fill="white"/>
<path d="M65.4345 27.1728V27.4019H64.5333V27.1117C64.5333 26.348 64.2431 25.9051 63.571 25.9051C62.899 25.9051 62.6088 26.348 62.6088 27.0965C62.6088 28.9905 65.4498 29.1738 65.4498 31.5413C65.4498 32.8243 64.8388 33.6491 63.5405 33.6491C62.2422 33.6491 61.6465 32.8243 61.6465 31.5413V31.0525H62.5324V31.5871C62.5324 32.3508 62.8532 32.7937 63.5252 32.7937C64.1973 32.7937 64.518 32.3508 64.518 31.5871C64.518 29.7084 61.6923 29.5251 61.6923 27.1576C61.6923 25.8592 62.3033 25.0497 63.571 25.0497C64.8235 25.065 65.4345 25.8898 65.4345 27.1728Z" fill="white"/>
<path d="M69.2383 29.4029C69.9409 29.4029 70.2769 29.0821 70.2769 28.2726V27.1576C70.2769 26.3938 70.002 25.9967 69.3146 25.9967H68.4135V29.4029H69.2383ZM69.3146 25.1414C70.6435 25.1414 71.2086 25.9203 71.2086 27.2034V28.2115C71.2086 29.5556 70.5824 30.2429 69.2383 30.2429H68.3982V33.5727H67.4512V25.1414H69.3146Z" fill="white"/>
<path d="M74.0646 31.0678H75.9433L74.981 26.1953L74.0646 31.0678ZM73.9424 31.8773L73.6216 33.5727H72.751L74.37 25.1414H75.7447L77.3638 33.5727H76.4168L76.096 31.8773H73.9424Z" fill="white"/>
<path d="M83.0152 27.1728V27.9366H82.114V27.127C82.114 26.3633 81.8085 25.9051 81.1212 25.9051C80.4491 25.9051 80.1284 26.3633 80.1284 27.127V31.5871C80.1284 32.3508 80.4491 32.809 81.1212 32.809C81.8085 32.809 82.114 32.3508 82.114 31.5871V30.4874H83.0152V31.5413C83.0152 32.8243 82.4042 33.6644 81.1059 33.6644C79.8076 33.6644 79.2119 32.8243 79.2119 31.5413V27.1881C79.2119 25.9051 79.8229 25.065 81.1059 25.065C82.4042 25.065 83.0152 25.9051 83.0152 27.1728Z" fill="white"/>
<path d="M86.0095 25.1414H85.0625V33.5727H86.0095V25.1414Z" fill="white"/>
<path d="M89.0333 31.5871C89.0333 32.3508 89.3541 32.809 90.0414 32.809C90.7287 32.809 91.0495 32.3661 91.0495 31.5871V27.127C91.0495 26.3633 90.7287 25.9051 90.0414 25.9051C89.3693 25.9051 89.0333 26.3633 89.0333 27.127V31.5871ZM88.1016 27.1728C88.1016 25.8898 88.7431 25.0497 90.0414 25.0497C91.355 25.0497 91.9812 25.8745 91.9812 27.1728V31.5413C91.9812 32.8243 91.3397 33.6644 90.0414 33.6644C88.7431 33.6644 88.1016 32.8243 88.1016 31.5413V27.1728Z" fill="white"/>
<path d="M94.0127 32.4119V33.5727H94.364L94.0585 34.6267H94.4557L94.9291 33.4811V32.4119H94.0127Z" fill="white"/>
<path d="M103.285 33.5575H102.368L100.978 26.8521V33.5727H100.153V25.1414H101.467L102.857 31.8773L104.201 25.1414H105.515V33.5727H104.629V26.791L103.285 33.5575Z" fill="white"/>
<path d="M108.631 25.1414H107.684V33.5727H108.631V25.1414Z" fill="white"/>
<path d="M116.986 33.5575H116.069L114.679 26.8521V33.5727H113.854V25.1414H115.168L116.558 31.8773L117.902 25.1414H119.216V33.5727H118.33V26.791L116.986 33.5575Z" fill="white"/>
<path d="M122.286 31.5871C122.286 32.3508 122.591 32.809 123.278 32.809C123.95 32.809 124.256 32.3508 124.256 31.5871V25.1414H125.142V31.5413C125.142 32.8243 124.546 33.6796 123.248 33.6796C121.95 33.6796 121.369 32.8243 121.369 31.5413V25.1414H122.301V31.5871H122.286Z" fill="white"/>
<path d="M128.09 33.5727H127.25V25.1414H128.441L130.412 31.2358V25.1414H131.237V33.5727H130.259L128.09 26.7604V33.5727Z" fill="white"/>
<path d="M135.376 32.7174C136.048 32.7174 136.384 32.2897 136.384 31.526V27.1881C136.384 26.4244 136.063 25.9967 135.376 25.9967H134.368V32.7174H135.376ZM135.391 25.1414C136.705 25.1414 137.315 25.9356 137.315 27.2339V31.4802C137.315 32.7632 136.705 33.5575 135.391 33.5575H133.405V25.1261H135.391V25.1414Z" fill="white"/>
<path d="M140.248 31.5871C140.248 32.3508 140.569 32.809 141.256 32.809C141.944 32.809 142.264 32.3661 142.264 31.5871V27.127C142.264 26.3633 141.944 25.9051 141.256 25.9051C140.584 25.9051 140.248 26.3633 140.248 27.127V31.5871ZM139.316 27.1728C139.316 25.8898 139.958 25.0497 141.256 25.0497C142.57 25.0497 143.196 25.8745 143.196 27.1728V31.5413C143.196 32.8243 142.555 33.6644 141.256 33.6644C139.958 33.6644 139.316 32.8243 139.316 31.5413V27.1728Z" fill="white"/>
</svg>
