<svg width="45" height="39" viewBox="0 0 45 39" fill="none" xmlns="http://www.w3.org/2000/svg">
<mask id="path-1-inside-1" fill="white">
<path fill-rule="evenodd" clip-rule="evenodd" d="M22.5 4C27.7796 4 32.4001 6.82168 34.9359 11.0393C40.573 11.5142 45 16.2401 45 22C45 28.0751 40.0751 33 34 33H22.5H8.5H8V32.9855C3.53831 32.7267 0 29.0266 0 24.5C0 19.9013 3.65193 16.1556 8.21389 16.0047C9.39664 9.18563 15.3427 4 22.5 4Z"/>
</mask>
<path d="M34.9359 11.0393L33.2218 12.0698L33.7488 12.9463L34.768 13.0322L34.9359 11.0393ZM8 33H6V35H8V33ZM8 32.9855H10V31.0982L8.11582 30.9889L8 32.9855ZM8.21389 16.0047L8.28001 18.0036L9.90638 17.9498L10.1845 16.3465L8.21389 16.0047ZM36.6499 10.0087C33.7676 5.21463 28.5102 2 22.5 2V6C27.049 6 31.0327 8.42873 33.2218 12.0698L36.6499 10.0087ZM47 22C47 15.1918 41.7679 9.60777 35.1038 9.04631L34.768 13.0322C39.378 13.4206 43 17.2884 43 22H47ZM34 35C41.1797 35 47 29.1797 47 22H43C43 26.9706 38.9706 31 34 31V35ZM22.5 35H34V31H22.5V35ZM8.5 35H22.5V31H8.5V35ZM8 35H8.5V31H8V35ZM6 32.9855V33H10V32.9855H6ZM8.11582 30.9889C4.70574 30.7911 2 27.9608 2 24.5H-2C-2 30.0923 2.37088 34.6624 7.88418 34.9822L8.11582 30.9889ZM2 24.5C2 20.9838 4.79269 18.119 8.28001 18.0036L8.14778 14.0058C2.51117 14.1922 -2 18.8189 -2 24.5H2ZM22.5 2C14.3535 2 7.58945 7.90186 6.24332 15.6629L10.1845 16.3465C11.2038 10.4694 16.332 6 22.5 6V2Z" fill="white" mask="url(#path-1-inside-1)"/>
<path d="M39.5 2L4 37.5" stroke="white" stroke-width="3"/>
</svg>
