<svg width="20" height="20" viewBox="0 0 20 20" fill="none" xmlns="http://www.w3.org/2000/svg">
<path d="M9.77264 8.19434C9.34116 8.19434 8.99139 8.5441 8.99139 8.97559V14.0066C8.99139 14.4381 9.34116 14.7878 9.77264 14.7878C10.2041 14.7878 10.5539 14.438 10.5539 14.0065V8.97559C10.5539 8.5441 10.2041 8.19434 9.77264 8.19434Z" fill="#373737"/>
<path d="M9.77264 7.23767C10.3551 7.23767 10.8273 6.76547 10.8273 6.18298C10.8273 5.6005 10.3551 5.1283 9.77264 5.1283C9.19016 5.1283 8.71796 5.6005 8.71796 6.18298C8.71796 6.76547 9.19016 7.23767 9.77264 7.23767Z" fill="#373737"/>
<path d="M10 0C4.47254 0 0 4.47293 0 10C0 15.5275 4.47293 20 10 20C15.5275 20 20 15.5271 20 10C20 4.47254 15.527 0 10 0ZM10 18.4375C5.33621 18.4375 1.5625 14.6635 1.5625 10C1.5625 5.33621 5.33652 1.5625 10 1.5625C14.6638 1.5625 18.4375 5.33652 18.4375 10C18.4375 14.6638 14.6634 18.4375 10 18.4375Z" fill="#373737"/>
</svg>
