{
  "accessors": [
    {
      "bufferView": 2,
      "componentType": 5126,
      "count": 8,
      "max": [
        -5.564723491668701,
        0.44148582220077515,
        4.0747246742248535
      ],
      "min": [
        -8.878266334533691,
        -2.8720574378967285,
        1.003577470779419
      ],
      "type": "VEC3"
    },
    {
      "bufferView": 2,
      "byteOffset": 96,
      "componentType": 5126,
      "count": 8,
      "max": [
        -0.7071062922477722,
        -0.7071070671081543,
        -1.4028495343154646e-07
      ],
      "min": [
        -0.7071065902709961,
        -0.7071073055267334,
        -2.3059453724272316e-07
      ],
      "type": "VEC3"
    },
    {
      "bufferView": 1,
      "componentType": 5126,
      "count": 8,
      "max": [
        0.985835611820221,
        0.8634178042411804
      ],
      "min": [
        0.011698040179908276,
        0.10518448799848557
      ],
      "type": "VEC2"
    },
    {
      "bufferView": 1,
      "byteOffset": 64,
      "componentType": 5126,
      "count": 8,
      "max": [
        0.5515303015708923,
        0.49293363094329834
      ],
      "min": [
        0.28433555364608765,
        0.05651713162660599
      ],
      "type": "VEC2"
    },
    {
      "bufferView": 0,
      "componentType": 5125,
      "count": 12,
      "type": "SCALAR"
    }
  ],
  "asset": {
    "extras": {
      "author": "Inmersys (https://sketchfab.com/inmersys)",
      "license": "CC-BY-4.0 (http://creativecommons.org/licenses/by/4.0/)",
      "source": "https://sketchfab.com/3d-models/fbx-casavitro-final-d590072adb62485e82fd85ed1f411425",
      "title": "Fbx_CasaVitro_Final"
    },
    "generator": "Sketchfab-11.69.1",
    "version": "2.0"
  },
  "bufferViews": [
    {
      "buffer": 0,
      "byteLength": 48,
      "name": "floatBufferViews",
      "target": 34963
    },
    {
      "buffer": 0,
      "byteLength": 128,
      "byteOffset": 48,
      "byteStride": 8,
      "name": "floatBufferViews",
      "target": 34962
    },
    {
      "buffer": 0,
      "byteLength": 192,
      "byteOffset": 176,
      "byteStride": 12,
      "name": "floatBufferViews",
      "target": 34962
    }
  ],
  "buffers": [
    {
      "byteLength": 368,
      "uri": "scene.bin"
    }
  ],
  "images": [
    {
      "uri": "textures/MT_Amb_Base_vidrioopaco2_UVc_metallicRoughness.png"
    }
  ],
  "materials": [
    {
      "doubleSided": true,
      "name": "MT_Amb_Base_vidrioopaco2_UVc",
      "pbrMetallicRoughness": {
        "metallicFactor": 0.0,
        "metallicRoughnessTexture": {
          "index": 0
        },
        "roughnessFactor": 0.8929713596497552
      }
    }
  ],
  "meshes": [
    {
      "name": "Amb_Base_vidrioopaco2_UVc_MT_Amb_Base_vidrioopaco2_UVc_0",
      "primitives": [
        {
          "attributes": {
            "NORMAL": 1,
            "POSITION": 0,
            "TEXCOORD_0": 2,
            "TEXCOORD_1": 3
          },
          "indices": 4,
          "material": 0,
          "mode": 4
        }
      ]
    }
  ],
  "nodes": [
    {
      "children": [
        1
      ],
      "matrix": [
        1.0,
        0.0,
        0.0,
        0.0,
        0.0,
        2.220446049250313e-16,
        -1.0,
        0.0,
        0.0,
        1.0,
        2.220446049250313e-16,
        0.0,
        0.0,
        0.0,
        0.0,
        1.0
      ],
      "name": "Sketchfab_model"
    },
    {
      "children": [
        2
      ],
      "matrix": [
        1.0,
        0.0,
        0.0,
        0.0,
        0.0,
        0.0,
        1.0,
        0.0,
        0.0,
        -1.0,
        0.0,
        0.0,
        0.0,
        0.0,
        0.0,
        1.0
      ],
      "name": "e05b385d9ab94405aeb9c4d336c646c2.fbx"
    },
    {
      "children": [
        3
      ],
      "name": "RootNode"
    },
    {
      "children": [
        4
      ],
      "matrix": [
        0.7071068407911907,
        5.551115123125783e-17,
        -0.7071067215818994,
        0.0,
        -0.7071067215818994,
        2.220446049250313e-16,
        -0.7071068407911906,
        0.0,
        5.551115123125783e-17,
        0.9999999999999999,
        2.220446049250313e-16,
        0.0,
        3.1066298484802246,
        6.109151363372803,
        -5.110657215118408,
        1.0
      ],
      "name": "Amb_Base_vidrioopaco2_UVc"
    },
    {
      "children": [
        5
      ],
      "matrix": [
        1.0,
        0.0,
        -0.0,
        0.0,
        0.0,
        1.0,
        0.0,
        0.0,
        0.0,
        0.0,
        1.0,
        0.0,
        7.215297698974609,
        1.2090880870819092,
        -2.539151191711426,
        1.0
      ],
      "name": "Object_4"
    },
    {
      "mesh": 0,
      "name": "Amb_Base_vidrioopaco2_UVc_MT_Amb_Base_vidrioopaco2_UVc_0"
    }
  ],
  "samplers": [
    {
      "magFilter": 9729,
      "minFilter": 9987,
      "wrapS": 10497,
      "wrapT": 10497
    }
  ],
  "scene": 0,
  "scenes": [
    {
      "name": "Sketchfab_Scene",
      "nodes": [
        0
      ]
    }
  ],
  "textures": [
    {
      "sampler": 0,
      "source": 0
    }
  ]
}
