<svg width="80" height="38" viewBox="0 0 80 38" fill="none" xmlns="http://www.w3.org/2000/svg">
<path d="M78.135 1.83084C78.2 1.83084 78.2621 1.82841 78.3222 1.82272C78.3815 1.81826 78.4339 1.80323 78.4785 1.77928C78.5228 1.75451 78.5585 1.72121 78.5865 1.67817C78.6133 1.63513 78.6276 1.57341 78.6276 1.49383C78.6276 1.42805 78.6133 1.37648 78.5837 1.33832C78.5549 1.30015 78.5187 1.27051 78.4741 1.2502C78.4294 1.2295 78.3799 1.2161 78.325 1.21163C78.2706 1.20595 78.217 1.20351 78.1659 1.20351H77.746V1.83084H78.135ZM77.7456 3.04978H77.3972V0.902631H78.2012C78.4578 0.902631 78.6507 0.950951 78.781 1.04759C78.9102 1.14504 78.9755 1.30177 78.9755 1.51982C78.9755 1.71309 78.9223 1.85561 78.8164 1.94494C78.7104 2.03549 78.5784 2.08909 78.4213 2.10614L79.0165 3.04978H78.6215L78.0733 2.13213H77.7448V3.04978H77.7456ZM79.5903 1.94007C79.5903 1.70456 79.5525 1.48855 79.4778 1.29121C79.4023 1.09428 79.2987 0.924964 79.1652 0.783255C79.0316 0.641141 78.8765 0.531511 78.6986 0.453956C78.5208 0.375996 78.3303 0.33661 78.1253 0.33661C77.9162 0.33661 77.7225 0.375996 77.543 0.453956C77.364 0.531511 77.2072 0.641141 77.0744 0.783255C76.9413 0.924964 76.8365 1.09428 76.7614 1.29121C76.6867 1.48855 76.6493 1.70456 76.6493 1.94007C76.6493 2.16096 76.6834 2.36885 76.7516 2.56253C76.8199 2.75621 76.9177 2.92553 77.046 3.0709C77.1743 3.21626 77.3286 3.33117 77.5101 3.41563C77.6916 3.50049 77.8963 3.54312 78.1257 3.54312C78.3307 3.54312 78.5216 3.50374 78.699 3.42618C78.8769 3.34863 79.032 3.239 79.1656 3.09688C79.2987 2.95517 79.4027 2.78626 79.4782 2.59096C79.5525 2.39565 79.5903 2.17842 79.5903 1.94007ZM80 1.94007C80 2.23079 79.9496 2.49513 79.8493 2.73348C79.7482 2.97223 79.6114 3.17647 79.4388 3.34538C79.2663 3.51551 79.0665 3.64667 78.8391 3.74046C78.6121 3.83344 78.3738 3.88014 78.1245 3.88014C77.8471 3.88014 77.5938 3.83101 77.3631 3.73234C77.1329 3.63367 76.9344 3.49805 76.7687 3.32508C76.603 3.15211 76.4731 2.94705 76.3789 2.71033C76.2859 2.4732 76.2384 2.21658 76.2384 1.94007C76.2384 1.64934 76.2888 1.38501 76.389 1.14666C76.4902 0.907912 76.6262 0.704077 76.7996 0.534758C76.9721 0.364626 77.1727 0.233475 77.4021 0.139679C77.6303 0.0466955 77.8707 0 78.1241 0C78.3734 0 78.6117 0.0466955 78.8387 0.139679C79.0661 0.233475 79.2659 0.364626 79.4384 0.534758C79.611 0.704077 79.7478 0.907912 79.8489 1.14666C79.9496 1.38501 80 1.64934 80 1.94007Z" fill="#272727"/>
<path d="M32.528 22.3485C33.5991 21.2534 34.1424 19.9049 34.1424 18.3433V5.94274C34.1424 4.3811 33.5955 3.02939 32.517 1.92658C31.4386 0.824584 30.1173 0.265869 28.5894 0.265869H23.0367V30.2204H27.0667V4.38557H28.5894C29.0234 4.38557 29.3556 4.52687 29.6654 4.84318C29.9744 5.15989 30.1124 5.49934 30.1124 5.94274V18.3433C30.1124 18.7871 29.9744 19.1265 29.6658 19.4428C29.492 19.6199 29.3154 19.7311 29.1107 19.7916L27.6632 20.224L28.3713 22.7131H28.3705L30.4624 30.22H34.7149L32.5158 22.3602C32.5199 22.357 32.5235 22.3533 32.528 22.3485Z" fill="#272727"/>
<path d="M46.2437 0.266724H42.2137V30.2208H46.2437V0.266724Z" fill="#272727"/>
<path d="M5.17134 0.266357L0.43811 30.2209H4.52939L7.2852 12.7968L8.68563 21.6887L9.21064 24.9566L9.21592 24.9501L10.0414 30.2209H14.1315L9.39905 0.266357H5.17134Z" fill="#272727"/>
<path d="M52.7002 0.266357L47.0659 15.2432L52.7002 30.2209H57.1475L51.5125 15.2432L57.1479 0.266357H52.7002Z" fill="#272727"/>
<path d="M70.2428 9.842V24.5736C70.2428 25.017 70.0946 25.3565 69.7617 25.6728C69.4287 25.9887 69.0718 26.1304 68.6041 26.1304C68.1375 26.1304 67.781 25.9887 67.4472 25.6728C67.1151 25.3565 66.9661 25.017 66.9661 24.5736V20.674V5.94238C66.9661 5.49817 67.1147 5.15953 67.4472 4.84281C67.7806 4.5261 68.1371 4.38521 68.6049 4.38521C69.0714 4.38521 69.4283 4.5261 69.7617 4.84281C70.0942 5.15953 70.2428 5.49817 70.2428 5.94238V9.842ZM72.8297 1.92703C71.6701 0.82503 70.2493 0.266724 68.6053 0.266724C66.962 0.266724 65.5405 0.82503 64.3804 1.92703C63.2208 3.02943 62.6328 4.38074 62.6328 5.94278V9.842V20.6744V24.574C62.6328 26.1365 63.2204 27.4878 64.3804 28.5898C65.5397 29.6914 66.9608 30.2501 68.6045 30.2501C70.2477 30.2501 71.6693 29.6914 72.8297 28.589C73.9886 27.487 74.5769 26.1361 74.5769 24.574V20.6744V9.842V5.94278C74.5769 4.38033 73.989 3.02862 72.8297 1.92703Z" fill="#272727"/>
<path d="M0.407667 33.7421H0V37.0732H0.407667V33.7421Z" fill="#272727"/>
<path d="M4.19403 34.6601H4.18632V37.0732H3.81885V33.7421H4.33087L4.74341 35.7361H4.75071V33.7421H5.11412V37.0732H4.69427L4.19403 34.6601Z" fill="#272727"/>
<path d="M9.02509 34.6601H9.01778V37.0732H8.6499V33.7421H9.16233L9.57446 35.7361H9.58177V33.7421H9.94518V37.0732H9.52573L9.02509 34.6601Z" fill="#272727"/>
<path d="M14.0092 36.3079C14.0092 36.5454 14.0905 36.636 14.2204 36.636C14.3503 36.636 14.4323 36.5454 14.4323 36.3079V34.5075C14.4323 34.27 14.3503 34.179 14.2204 34.179C14.0905 34.179 14.0092 34.27 14.0092 34.5075V36.3079ZM13.6008 34.5408C13.6008 34.0077 13.8196 33.7031 14.2204 33.7031C14.6216 33.7031 14.84 34.0077 14.84 34.5408V36.2738C14.84 36.8069 14.6216 37.1114 14.2204 37.1114C13.8196 37.1114 13.6008 36.8073 13.6008 36.2738V34.5408Z" fill="#272727"/>
<path d="M19.1583 36.4593H19.166L19.4738 33.7421H19.8489L19.4478 37.074H18.8391L18.4384 33.7421H18.8505L19.1583 36.4593Z" fill="#272727"/>
<path d="M23.8371 36.0171H24.2305L24.0381 34.332H24.0304L23.8371 36.0171ZM24.7689 37.0732H24.3568L24.287 36.469H23.7855L23.7153 37.0732H23.3401L23.7559 33.7421H24.3532L24.7689 37.0732Z" fill="#272727"/>
<path d="M28.1785 33.7417H29.4404V34.2176H29.0137V37.0733H28.6052V34.2176H28.1785V33.7417Z" fill="#272727"/>
<path d="M33.3681 33.7421H32.9604V37.0732H33.3681V33.7421Z" fill="#272727"/>
<path d="M37.3831 36.3079C37.3831 36.5454 37.4643 36.636 37.5942 36.636C37.7242 36.636 37.8062 36.5454 37.8062 36.3079V34.5075C37.8062 34.27 37.7242 34.179 37.5942 34.179C37.4643 34.179 37.3831 34.27 37.3831 34.5075V36.3079ZM36.9746 34.5408C36.9746 34.0077 37.1935 33.7031 37.5942 33.7031C37.995 33.7031 38.2139 34.0077 38.2139 34.5408V36.2738C38.2139 36.8069 37.995 37.1114 37.5942 37.1114C37.1935 37.1114 36.9746 36.8073 36.9746 36.2738V34.5408Z" fill="#272727"/>
<path d="M42.1914 34.6601H42.1837V37.0732H41.8162V33.7421H42.3286L42.7408 35.7361H42.7481V33.7421H43.1115V37.0732H42.6921L42.1914 34.6601Z" fill="#272727"/>
<path d="M51.0691 34.2176V36.5966H51.2986C51.4285 36.5966 51.5069 36.5117 51.5069 36.2734V34.5408C51.5069 34.3033 51.4289 34.2172 51.2986 34.2172H51.0691V34.2176ZM50.6611 33.7417H51.3067C51.7152 33.7417 51.9157 34.032 51.9157 34.5652V36.2498C51.9157 36.783 51.7152 37.0729 51.3067 37.0729H50.6611V33.7417Z" fill="#272727"/>
<path d="M55.9221 35.1458H56.4825V35.6216H55.9221V36.5974H56.6274V37.0736H55.5137V33.7421H56.6274V34.2171H55.9221V35.1458Z" fill="#272727"/>
<path d="M60.7715 33.7035C61.169 33.7035 61.372 34.008 61.372 34.5412V34.6463H60.9863V34.5075C60.9863 34.2703 60.9124 34.179 60.7824 34.179C60.6525 34.179 60.5786 34.2703 60.5786 34.5075C60.5786 34.7503 60.6598 34.9314 60.927 35.2314C61.2681 35.6168 61.3757 35.8929 61.3757 36.2729C61.3757 36.8065 61.1682 37.1114 60.7674 37.1114C60.3662 37.1114 60.1588 36.8065 60.1588 36.2729V36.0687H60.5441V36.307C60.5441 36.5446 60.6261 36.6302 60.756 36.6302C60.8856 36.6302 60.9672 36.5446 60.9672 36.307C60.9672 36.0634 60.886 35.8831 60.6188 35.5835C60.2777 35.1981 60.1701 34.9212 60.1701 34.5412C60.1701 34.008 60.3735 33.7035 60.7715 33.7035Z" fill="#272727"/>
<path d="M65.3569 33.7421H64.9492V37.0732H65.3569V33.7421Z" fill="#272727"/>
<path d="M69.3423 35.2168H69.9136V36.2741C69.9136 36.8064 69.7057 37.1114 69.3053 37.1114C68.9046 37.1114 68.6967 36.8064 68.6967 36.2741V34.5403C68.6967 34.0072 68.9046 33.7026 69.3053 33.7026C69.7057 33.7026 69.9136 34.0076 69.9136 34.5403V34.8643H69.5278V34.507C69.5278 34.2691 69.4466 34.1785 69.3163 34.1785C69.1859 34.1785 69.1047 34.2691 69.1047 34.507V36.3074C69.1047 36.5449 69.1863 36.6302 69.3163 36.6302C69.4462 36.6302 69.5278 36.5449 69.5278 36.3074V35.6926H69.3423V35.2168Z" fill="#272727"/>
<path d="M73.924 34.6601H73.9167V37.0732H73.5492V33.7421H74.0612L74.4733 35.7361H74.4811V33.7421H74.8441V37.0732H74.425L73.924 34.6601Z" fill="#272727"/>
</svg>
