<svg width="36" height="36" viewBox="0 0 36 36" fill="none" xmlns="http://www.w3.org/2000/svg">
<rect width="36" height="36" rx="18" fill="white"/>
<path d="M17.7726 16.1943C17.3412 16.1943 16.9914 16.5441 16.9914 16.9756V22.0066C16.9914 22.4381 17.3412 22.7878 17.7726 22.7878C18.2041 22.7878 18.5539 22.438 18.5539 22.0065V16.9756C18.5539 16.5441 18.2041 16.1943 17.7726 16.1943Z" fill="#373737"/>
<path d="M17.7726 15.2377C18.3551 15.2377 18.8273 14.7655 18.8273 14.183C18.8273 13.6005 18.3551 13.1283 17.7726 13.1283C17.1902 13.1283 16.718 13.6005 16.718 14.183C16.718 14.7655 17.1902 15.2377 17.7726 15.2377Z" fill="#373737"/>
<path d="M18 8C12.4725 8 8 12.4729 8 18C8 23.5275 12.4729 28 18 28C23.5275 28 28 23.5271 28 18C28 12.4725 23.527 8 18 8ZM18 26.4375C13.3362 26.4375 9.5625 22.6635 9.5625 18C9.5625 13.3362 13.3365 9.5625 18 9.5625C22.6638 9.5625 26.4375 13.3365 26.4375 18C26.4375 22.6638 22.6634 26.4375 18 26.4375Z" fill="#373737"/>
</svg>
