<svg width="36" height="36" viewBox="0 0 36 36" fill="none" xmlns="http://www.w3.org/2000/svg">
<rect width="36" height="36" rx="18" fill="#1D1D1D"/>
<path d="M17.7725 16.1943C17.341 16.1943 16.9912 16.5441 16.9912 16.9756V22.0066C16.9912 22.4381 17.341 22.7878 17.7725 22.7878C18.2039 22.7878 18.5537 22.438 18.5537 22.0065V16.9756C18.5537 16.5441 18.2039 16.1943 17.7725 16.1943Z" fill="white"/>
<path d="M17.7725 15.2377C18.3549 15.2377 18.8271 14.7655 18.8271 14.183C18.8271 13.6005 18.3549 13.1283 17.7725 13.1283C17.19 13.1283 16.7178 13.6005 16.7178 14.183C16.7178 14.7655 17.19 15.2377 17.7725 15.2377Z" fill="white"/>
<path d="M18 8C12.4725 8 8 12.4729 8 18C8 23.5275 12.4729 28 18 28C23.5275 28 28 23.5271 28 18C28 12.4725 23.527 8 18 8ZM18 26.4375C13.3362 26.4375 9.5625 22.6635 9.5625 18C9.5625 13.3362 13.3365 9.5625 18 9.5625C22.6638 9.5625 26.4375 13.3365 26.4375 18C26.4375 22.6638 22.6634 26.4375 18 26.4375Z" fill="white"/>
</svg>
